HIERARCHY
ROOT Hips
{
  OFFSET -4.35178 90.3298 111.633
  CHANNELS 6 Xposition Yposition Zposition Zrotation Xrotation Yrotation
  JOINT LeftUpLeg
  {
    OFFSET 0.103456 1.85784 10.5485
    CHANNELS 6 Xposition Yposition Zposition Zrotation Xrotation Yrotation
    JOINT LeftLeg
    {
      OFFSET 43.5 -4.2e-05 0
      CHANNELS 6 Xposition Yposition Zposition Zrotation Xrotation Yrotation
      JOINT LeftFoot
      {
        OFFSET 42.3722 1.9e-05 0
        CHANNELS 6 Xposition Yposition Zposition Zrotation Xrotation Yrotation
        JOINT LeftToe
        {
          OFFSET 17.3 0 0
          CHANNELS 6 Xposition Yposition Zposition Zrotation Xrotation Yrotation
          End Site
          {
            OFFSET 0 0 0
          }
        }
      }
    }
  }
  JOINT RightUpLeg
  {
    OFFSET 0.103456 1.85782 -10.5485
    CHANNELS 6 Xposition Yposition Zposition Zrotation Xrotation Yrotation
    JOINT RightLeg
    {
      OFFSET 43.5 -2.7e-05 0
      CHANNELS 6 Xposition Yposition Zposition Zrotation Xrotation Yrotation
      JOINT RightFoot
      {
        OFFSET 42.3723 0 0
        CHANNELS 6 Xposition Yposition Zposition Zrotation Xrotation Yrotation
        JOINT RightToe
        {
          OFFSET 17.3 0 1.7e-05
          CHANNELS 6 Xposition Yposition Zposition Zrotation Xrotation Yrotation
          End Site
          {
            OFFSET 0 0 0
          }
        }
      }
    }
  }
  JOINT Spine
  {
    OFFSET 6.90197 -2.60373 0
    CHANNELS 6 Xposition Yposition Zposition Zrotation Xrotation Yrotation
    JOINT Spine1
    {
      OFFSET 12.5881 0 0
      CHANNELS 6 Xposition Yposition Zposition Zrotation Xrotation Yrotation
      JOINT Spine2
      {
        OFFSET 12.3432 -1.8e-05 0
        CHANNELS 6 Xposition Yposition Zposition Zrotation Xrotation Yrotation
        JOINT Neck
        {
          OFFSET 25.8329 2.3e-05 0
          CHANNELS 6 Xposition Yposition Zposition Zrotation Xrotation Yrotation
          JOINT Head
          {
            OFFSET 11.7666 0 0
            CHANNELS 6 Xposition Yposition Zposition Zrotation Xrotation Yrotation
            End Site
            {
              OFFSET 0 0 0
            }
          }
        }
        JOINT LeftShoulder
        {
          OFFSET 19.7459 -1.48035 6.0001
          CHANNELS 6 Xposition Yposition Zposition Zrotation Xrotation Yrotation
          JOINT LeftArm
          {
            OFFSET 11.2841 1.8e-05 -2e-05
            CHANNELS 6 Xposition Yposition Zposition Zrotation Xrotation Yrotation
            JOINT LeftForeArm
            {
              OFFSET 33 -1.3e-05 1.9e-05
              CHANNELS 6 Xposition Yposition Zposition Zrotation Xrotation Yrotation
              JOINT LeftHand
              {
                OFFSET 25.2 3.2e-05 1.1e-05
                CHANNELS 6 Xposition Yposition Zposition Zrotation Xrotation Yrotation
                End Site
                {
                  OFFSET 0 0 0
                }
              }
            }
          }
        }
        JOINT RightShoulder
        {
          OFFSET 19.7461 -1.48036 -6.00008
          CHANNELS 6 Xposition Yposition Zposition Zrotation Xrotation Yrotation
          JOINT RightArm
          {
            OFFSET 11.2841 0 0
            CHANNELS 6 Xposition Yposition Zposition Zrotation Xrotation Yrotation
            JOINT RightForeArm
            {
              OFFSET 33.0001 1.6e-05 0
              CHANNELS 6 Xposition Yposition Zposition Zrotation Xrotation Yrotation
              JOINT RightHand
              {
                OFFSET 25.1998 0.000123 0.000432
                CHANNELS 6 Xposition Yposition Zposition Zrotation Xrotation Yrotation
                End Site
                {
                  OFFSET 0 0 0
                }
              }
            }
          }
        }
      }
    }
  }
}
MOTION
Frames:	6
Frame Time:	0.0333333
-16.7815 91.7397 -4.22677 12.0154 84.5704 80.2574 0.103456 1.85784 10.5485 2.77132 16.1278 -176.323 43.5 -4.2e-05 1e-05 -18.2259 -9.33926 -3.05464 42.3722 1.9e-05 -4.44089e-16 75.4355 0.984919 0.897479 17.3 1.55431e-15 3e-06 21.4546 -1e-06 0.003093 0.103456 1.85782 -10.5485 9.9107 -2.60687 174.897 43.5 -2.7e-05 4e-06 -3.42868 11.6735 2.64813 42.3723 0 1e-05 79.1194 13.1195 -11.8244 17.3 -6e-06 1.7e-05 21.4546 -1.9e-05 -0.003116 6.90197 -2.60373 -3e-06 7.35227 -0.0451102 0.0971931 12.5881 1e-05 8e-06 4.6904 -0.0154842 0.224065 12.3432 -1.8e-05 -5e-06 4.3711 0.06668 0.235441 25.8329 2.3e-05 7e-06 3.91564 0.807445 -5.00541 11.7666 -8e-06 -6e-06 -19.1859 -5.56233 12.054 19.7459 -1.48035 6.0001 174.929 -9.93185 -100.077 11.2841 1.8e-05 -2e-05 2.65917 -22.8093 28.7473 33 -1.3e-05 1.9e-05 -20.5139 9.58652 -16.3042 25.2 3.2e-05 1.1e-05 -1.15208 30.6742 3.32377 19.7461 -1.48036 -6.00008 -178.778 0.309448 80.1414 11.2841 0 -1e-06 9.01067 -1.34376 -1.01286 33.0001 1.6e-05 -1e-06 -27.746 6.51128 19.3793 25.1998 0.000123 0.000432 17.9646 -13.1742 5.76744 
-16.7826 91.7461 -4.14426 12.7053 84.5275 79.5546 0.103456 1.85784 10.5485 2.82857 16.083 -176.344 43.5 -4.2e-05 1e-05 -18.3577 -9.38596 -3.05505 42.3722 1.9e-05 4.44089e-16 75.5924 0.937433 0.959713 17.3 4.44089e-16 3e-06 21.4546 -1e-06 0.003093 0.103456 1.85782 -10.5485 9.88351 -2.68747 174.85 43.5 -2.7e-05 4e-06 -3.65008 11.6491 2.68297 42.3723 0 1e-05 79.1948 13.1082 -11.7015 17.3 -6e-06 1.7e-05 21.4546 -1.9e-05 -0.003116 6.90197 -2.60373 -3e-06 7.40222 -0.0245016 0.072997 12.5881 1e-05 8e-06 4.78998 0.0233956 0.173013 12.3432 -1.8e-05 -5e-06 4.4703 0.103835 0.182242 25.8329 2.3e-05 7e-06 3.73326 0.817607 -4.99358 11.7666 -8e-06 -6e-06 -18.7447 -5.54048 12.0633 19.7459 -1.48035 6.0001 175.071 -9.94793 -99.6738 11.2841 1.8e-05 -2e-05 2.65587 -22.5226 28.8219 33 -1.3e-05 1.9e-05 -22.0673 9.65824 -16.0186 25.2 3.2e-05 1.1e-05 -1.58572 30.6904 3.34434 19.7461 -1.48036 -6.00008 -178.677 0.219382 79.8814 11.2841 0 -1e-06 8.90285 -1.36985 -1.35945 33.0001 1.6e-05 -1e-06 -27.9302 6.31053 19.4488 25.1998 0.000123 0.000432 17.8879 -13.2557 5.89788 
-16.7237 91.746 -4.01792 12.9398 84.4965 79.3068 0.103456 1.85784 10.5485 2.83378 16.0536 -176.359 43.5 -4.2e-05 1e-05 -18.61 -9.42711 -3.05863 42.3722 1.9e-05 -8.88178e-16 75.8054 0.930021 1.01962 17.3 8.88178e-16 3e-06 21.4546 -1e-06 0.003093 0.103456 1.85782 -10.5485 9.97206 -2.7004 174.806 43.5 -2.7e-05 4e-06 -3.69133 11.6401 2.69734 42.3723 8.88178e-16 1e-05 79.2853 13.1831 -11.621 17.3 -6e-06 1.7e-05 21.4546 -1.9e-05 -0.003116 6.90197 -2.60373 -3e-06 7.43662 -0.00528868 0.0424463 12.5881 1e-05 8e-06 4.8585 0.0581667 0.109405 12.3432 -1.8e-05 -5e-06 4.53854 0.135637 0.116719 25.8329 2.3e-05 7e-06 3.54179 0.944524 -5.02423 11.7666 -8e-06 -6e-06 -17.9961 -5.40961 12.1904 19.7459 -1.48035 6.0001 175.292 -9.84252 -99.2358 11.2841 1.8e-05 -2e-05 2.8829 -22.3826 29.2907 33 -1.3e-05 1.9e-05 -23.9963 9.59112 -15.6501 25.2 3.2e-05 1.1e-05 -1.82877 30.7251 3.21456 19.7461 -1.48036 -6.00008 -178.55 0.0782824 79.6021 11.2841 -7.10543e-15 -1e-06 8.546 -1.4316 -1.92081 33.0001 1.6e-05 -1e-06 -27.7042 6.1685 19.3741 25.1998 0.000123 0.000432 17.8497 -13.3078 5.96249 
-16.6413 91.7189 -3.86977 12.9687 84.4613 79.2755 0.103456 1.85784 10.5485 2.81639 16.0688 -176.374 43.5 -4.2e-05 1e-05 -18.9301 -9.45885 -3.07713 42.3722 1.9e-05 1.33227e-15 75.9911 0.978787 1.07874 17.3 0 3e-06 21.4546 -1e-06 0.003093 0.103456 1.85782 -10.5485 10.1773 -2.61299 174.744 43.5 -2.7e-05 4e-06 -3.56467 11.6387 2.68446 42.3723 0 1e-05 79.3497 13.347 -11.5973 17.3 -6e-06 1.7e-05 21.4546 -1.9e-05 -0.003116 6.90197 -2.60373 -3e-06 7.47574 -0.00639774 0.00479742 12.5881 1e-05 8e-06 4.937 0.0514816 0.0345753 12.3432 -1.8e-05 -5e-06 4.61743 0.125513 0.0425756 25.8329 2.3e-05 7e-06 3.28629 1.10515 -5.12286 11.7666 -8e-06 -6e-06 -17.1359 -5.23278 12.3899 19.7459 -1.48035 6.0001 175.635 -9.61139 -98.5478 11.2841 1.8e-05 -2e-05 3.68976 -22.2433 30.2899 33 -1.3e-05 1.9e-05 -27.0588 9.2881 -15.0868 25.2 3.2e-05 1.1e-05 -1.93346 30.7312 2.96349 19.7461 -1.48036 -6.00008 -178.431 -0.0736164 79.221 11.2841 0 -1e-06 7.64827 -1.42443 -3.0262 33.0001 1.6e-05 -1e-06 -27.3508 5.61665 19.3974 25.1998 0.000123 0.000432 18.0304 -13.5953 6.26988 
-16.5229 91.6935 -3.72984 13.5894 84.4503 78.6498 0.103456 1.85784 10.5485 2.74391 16.0795 -176.42 43.5 -4.2e-05 1e-05 -19.3406 -9.5084 -3.10214 42.3722 1.9e-05 0 76.2472 1.01245 1.17468 17.3 2.22045e-16 3e-06 21.4546 -1e-06 0.003093 0.103456 1.85782 -10.5485 10.2713 -2.54733 174.638 43.5 -2.7e-05 4e-06 -3.55649 11.6285 2.69136 42.3723 -1.77636e-15 1e-05 79.434 13.5077 -11.5164 17.3 -6e-06 1.7e-05 21.4546 -1.9e-05 -0.003116 6.90197 -2.60373 -3e-06 7.56416 -0.0176117 -0.0246316 12.5881 1e-05 8e-06 5.11425 0.026871 -0.0222709 12.3432 -1.8e-05 -5e-06 4.79524 0.100136 -0.0123807 25.8329 2.3e-05 7e-06 2.85828 1.22763 -5.26938 11.7666 -8e-06 -6e-06 -16.7105 -5.12945 12.5496 19.7459 -1.48035 6.0001 176.115 -9.44505 -97.4994 11.2841 1.8e-05 -2e-05 5.02701 -22.0208 32.2007 33 -1.3e-05 1.9e-05 -31.7215 8.93827 -14.187 25.2 3.2e-05 1.1e-05 -2.88793 30.5418 2.91798 19.7461 -1.48036 -6.00008 -178.058 -0.154672 78.3202 11.2841 0 -1e-06 6.21405 -2.22627 -4.30374 33.0001 1.6e-05 -1e-06 -27.7607 4.23335 19.4776 25.1998 0.000123 0.000432 17.7629 -14.2806 6.79622 
-16.37 91.6688 -3.57339 14.7258 84.4481 77.5015 0.103456 1.85784 10.5485 2.68113 16.0363 -176.486 43.5 -4.2e-05 1e-05 -19.7298 -9.59586 -3.12622 42.3722 1.9e-05 0 76.5545 0.995707 1.30755 17.3 -4.44089e-16 3e-06 21.4546 -1e-06 0.003093 0.103456 1.85782 -10.5485 10.2989 -2.52089 174.526 43.5 -2.7e-05 4e-06 -3.63077 11.597 2.70148 42.3723 0 1e-05 79.5175 13.6099 -11.4094 17.3 -6e-06 1.7e-05 21.4546 -1.9e-05 -0.003116 6.90197 -2.60373 -3e-06 7.70846 -0.00486487 -0.0570308 12.5881 1e-05 8e-06 5.40278 0.0507504 -0.088402 12.3432 -1.8e-05 -5e-06 5.08363 0.124243 -0.0794291 25.8329 2.3e-05 7e-06 2.29696 1.21131 -5.35864 11.7666 -8e-06 -6e-06 -16.7649 -5.28909 12.6252 19.7459 -1.48035 6.0001 176.842 -9.5019 -95.8784 11.2841 1.8e-05 -2e-05 5.4977 -21.118 34.3905 33 -1.3e-05 1.9e-05 -37.403 9.4661 -12.9809 25.2 3.2e-05 1.1e-05 -4.94468 30.6905 3.12249 19.7461 -1.48036 -6.00008 -177.454 -0.185247 76.935 11.2841 0 -1e-06 4.20129 -3.97729 -5.78638 33.0001 1.6e-05 -1e-06 -28.6857 2.54478 19.2728 25.1998 0.000123 0.000432 16.8218 -15.1014 7.34507 
